<svg width="1200" height="675" viewBox="0 0 1200 675" xmlns="http://www.w3.org/2000/svg">
  <!-- Background -->
  <rect width="1200" height="675" fill="#16213E" />
  
  <!-- iPhone Mockup -->
  <rect x="250" y="137.5" width="250" height="500" rx="30" fill="#0F0E17" stroke="#536DFE" stroke-width="5" />
  <rect x="270" y="177.5" width="210" height="420" rx="2" fill="#121212" />
  
  <!-- Mac Mockup -->
  <rect x="600" y="187.5" width="400" height="250" rx="10" fill="#0F0E17" stroke="#536DFE" stroke-width="5" />
  <rect x="600" y="437.5" width="400" height="30" rx="5" fill="#0F0E17" stroke="#536DFE" stroke-width="5" />
  <rect x="620" y="207.5" width="360" height="210" rx="2" fill="#121212" />
  
  <!-- App UI Elements -->
  
  <!-- iPhone UI -->
  <rect x="290" y="197.5" width="170" height="30" rx="5" fill="#9D4EDD" opacity="0.8" />
  <rect x="290" y="247.5" width="170" height="80" rx="5" fill="#536DFE" opacity="0.6" />
  <rect x="290" y="347.5" width="80" height="80" rx="5" fill="#536DFE" opacity="0.4" />
  <rect x="380" y="347.5" width="80" height="80" rx="5" fill="#9D4EDD" opacity="0.4" />
  <rect x="290" y="447.5" width="170" height="30" rx="5" fill="#536DFE" opacity="0.6" />
  <rect x="290" y="497.5" width="170" height="30" rx="5" fill="#536DFE" opacity="0.4" />
  <rect x="290" y="547.5" width="170" height="30" rx="5" fill="#9D4EDD" opacity="0.6" />
  
  <!-- Mac UI -->
  <rect x="640" y="227.5" width="320" height="40" rx="5" fill="#9D4EDD" opacity="0.8" />
  <rect x="640" y="287.5" width="150" height="100" rx="5" fill="#536DFE" opacity="0.6" />
  <rect x="810" y="287.5" width="150" height="100" rx="5" fill="#9D4EDD" opacity="0.4" />
  <rect x="640" y="407.5" width="320" height="10" rx="2" fill="#536DFE" opacity="0.6" />
  
  <!-- Teevi Logo -->
  <text x="600" y="100" font-family="sans-serif" font-size="48" font-weight="bold" fill="#FFFFFF" text-anchor="middle">Teevi App Preview</text>
  
  <!-- Sparkles -->
  <circle cx="330" y="220" r="5" fill="#FFFFFF" opacity="0.8" />
  <circle cx="700" y="250" r="6" fill="#FFFFFF" opacity="0.7" />
  <circle cx="900" y="300" r="4" fill="#FFFFFF" opacity="0.9" />
</svg>
